<svg xmlns="http://www.w3.org/2000/svg" xmlns:xlink="http://www.w3.org/1999/xlink" aria-hidden="true" role="img" class="iconify iconify--logos" width="31.88" height="32" preserveAspectRatio="xMidYMid meet" viewBox="0 0 256 257"><defs><linearGradient id="IconifyId1813088fe1fbc01fb466" x1="-.828%" x2="57.636%" y1="7.652%" y2="78.411%"><stop offset="0%" stop-color="#FF00DC"></stop><stop offset="100%" stop-color="#FF00DC" stop-opacity="0"></stop></linearGradient><linearGradient id="IconifyId1813088fe1fbc01fb467" x1="50%" x2="50%" y1="0%" y2="100%"><stop offset="0%" stop-color="#FFEA83"></stop><stop offset="8.333%" stop-color="#FFDD35"></stop><stop offset="100%" stop-color="#FFA800"></stop></linearGradient></defs><path fill="url(#IconifyId1813088fe1fbc01fb466)" d="M255.153 37.938L134.897 252.976c-2.883 5.084-10.017 5.084-12.9 0L.846 37.938c-2.883-5.084-.849-10.936 4.667-13.055l10.823-4.935c5.516-2.119 11.739.075 14.622 5.159L31.029 85.26l168.89-59.123c5.984-2.075 12.46 2.614 12.46 8.744v141.498c0 4.632-2.891 8.823-7.41 10.627l-15.775 7.51c-4.951 2.374-10.864.647-13.589-4.15-.825-1.491-1.403-2.641-1.422-1.543L74.224 73.987 38.299 174.666c-1.155 2.793-.637 6.047 1.237 8.05a7.304 7.304 0 0 0 5.384 2.33c2.923 0 5.517-1.592 6.852-4.148l10.723-20.426h51.098c4.521 0 8.587-3.278 8.587-7.318c0-4.039-4.066-7.318-8.587-7.318h-5.331l7.705-14.69c1.342-2.557 3.927-4.145 6.866-4.145c3.791 0 7.297 2.155 8.671 5.491l10.589 25.405 31.744-60.692c2.82-5.388 8.771-8.981 15.312-8.981a15.694 15.694 0 0 1 14.928 10.322l31.146 59.553c5.364 10.23-.213 22.667-11.863 26.02l-5.154 1.649c-5.838 1.861-12.227-1.324-14.346-7.567z" fill="#00D8FF"></path><path fill="url(#IconifyId1813088fe1fbc01fb467)" d="M185.432.063L96.44 17.501a3.268 3.268 0 0 0-2.634 3.014l-5.474 92.456a3.268 3.268 0 0 0 3.997 3.378l24.777-5.718c2.318-.535 4.412 1.402 4.063 3.708l-4.095 27.968c-.3 2.05 1.46 3.905 3.522 3.905h71.293c2.063 0 3.822-1.855 3.522-3.905l-4.095-27.968c-.35-2.306 1.744-4.243 4.063-3.708l24.777 5.718c2.537.545 4.99-1.884 3.997-3.378L189.284 20.499a3.268 3.268 0 0 0-3.852-3.436z"></path></svg>
